<svg xmlns="http://www.w3.org/2000/svg" xmlns:xlink="http://www.w3.org/1999/xlink" width="698.616" height="513" viewBox="0 0 698.616 513"><defs><style>.a,.h,.l{fill:#fff;}.a,.i{stroke:#263238;}.a,.d,.f,.g,.h,.i,.j,.k{stroke-linecap:round;stroke-width:1.232px;}.a,.f,.g,.h,.i,.j,.k{stroke-linejoin:round;}.b{fill:#96aabe;opacity:0.2;}.c{fill:#e7edf2;}.d,.f{fill:none;}.d,.f,.g,.h,.j,.k{stroke:#333c46;}.d{stroke-miterlimit:10;}.e,.g,.p,.q{fill:#333c46;}.i{fill:#263238;}.j,.n{fill:#2cbeff;}.k{fill:#ffe2e2;}.m{clip-path:url(#a);}.n{opacity:0.3;}.o{clip-path:url(#b);}.p{font-size:162px;font-family:Montserrat-Bold, Montserrat;font-weight:700;}.q{font-size:24px;font-family:Montserrat-SemiBold, Montserrat;font-weight:600;}</style><clipPath id="a"><path class="a" d="M327.618,247.893c-3.945,7.16-7.245,12.874-7.245,12.874s-17.9-29.483-24.162-34.454-29.483-9.393-29.483-9.393a92.663,92.663,0,0,0-28.683,0s-23.264,4.465-29.484,9.393-24.176,34.454-24.176,34.454-3.566-6.192-7.722-13.759l-12.313,7.5c3.594,12.341,7.343,24.176,9.294,27.293,4.479,7.16,9.407,16.118,21.481,10.74s27.307-22.815,27.307-22.815l25.538.393h3.538l30.887-.393s15.219,17.451,27.293,22.815,17.016-3.58,21.481-10.74c1.966-3.131,5.728-15.009,9.336-27.392Z" transform="translate(-164.35 -215.805)"/></clipPath><clipPath id="b"><path class="a" d="M203.43,239.169s-5.812,12.523-4.465,20.582a85.209,85.209,0,0,1,1.334,9.828s-8.424,23.278-9.828,31.772a19.22,19.22,0,0,0,7.61,18.8c4.928,3.58,72.052,4.479,82.343,1.8s9.393-12.538,8.943-21.481-3.973-28.178-3.973-28.178,1.4-27.307-4.465-34.018" transform="translate(-190.19 -238.27)"/></clipPath></defs><g transform="translate(-639.384 -167)"><g transform="translate(621 112.891)"><g transform="translate(44.275 67.109)"><path class="b" d="M158.639,552.1s67.391,35,144.315-1.9S404.841,441.818,444.826,388.045c20.919-28.08,55.148-43.8,81.248-67.475,83.48-75.646,53.351-202.173-23.011-236.837-66.113-30.045-142.49-19.277-237.132,31.589S103.07,199.014,53.411,300.381,74.906,503.059,158.639,552.1Z" transform="translate(-37.003 -67.109)"/></g><g transform="translate(489.365 354.374)"><path class="c" d="M416.007,425.33s-4.633-19.838-1.179-37.458,11.709-5.855,21.06-17.564S440.577,336.36,451.107,327s25.763-8.2,29.273-25.763,5.855-31.6,12.875-29.259-5.855,23.4-5.855,36.293,7.02,21.06,2.345,33.948-24.584,8.185-24.584,23.4,8.2,30.438,1.165,40.982-25.749,12.875-28.08,18.729-8.2,16.384-14.04,16.384S416.007,425.33,416.007,425.33Z" transform="translate(-329.976 -271.717)"/><path class="c" d="M436.236,402.316c1.179-3.51-1.165-33.948-11.7-39.8s-22.253-3.51-28.08-14.04-5.855-15.219-11.7-16.384-33.962-5.855-30.438,0,24.584-3.51,24.584,8.185-2.345,30.438,4.675,35.1,25.763,3.51,24.584,14.04-4.675,14.04,1.179,17.55,22.239,18.743,24.584,7.02Z" transform="translate(-354.023 -248.492)"/><path class="d" d="M422.138,433s-5.447-17.03,9.547-48.4,25.9-55.218,32.727-67.489" transform="translate(-326.896 -253.376)"/><path class="d" d="M427.437,427.5s-2.036-8.185-8.859-30.677-14.994-28.641-26.591-36.138-12.271-19.768-14.307-23.18" transform="translate(-344.466 -245.139)"/><path class="c" d="M433.52,407.031s1.4-12.271,12.271-15.682,21.13-2.05,23.18-9.547,2.036-14.994,6.809-19.094,10.909-6.135,11.6-4.086-6.823,3.412-6.823,10.221,10.221,23.868-4.773,30.691-27.265.674-32.713,5.447-8.873,8.185-8.873,8.185Z" transform="translate(-321.908 -236.936)"/><path class="d" d="M432.55,415.29s4.844-17.7,16.356-21.818,19.742.5,25.393-6.761,3.136-13.5,2.42-18.965" transform="translate(-322.3 -232.924)"/><path class="e" d="M451.137,399.66h-42.26a3.4,3.4,0,0,0-3.4,3.412h0a3.4,3.4,0,0,0,3.4,3.412h.351l3.285,8.634a3.538,3.538,0,0,0,3.3,2.274h28.4a3.538,3.538,0,0,0,3.3-2.274l3.3-8.634h.323a3.412,3.412,0,0,0,3.412-3.412h0A3.412,3.412,0,0,0,451.137,399.66Z" transform="translate(-333.236 -220.031)"/></g><g transform="translate(108.602 157.428)"><circle class="f" cx="44.801" cy="44.801" r="44.801"/><circle class="f" cx="37.121" cy="37.121" r="37.121" transform="translate(2.366 13.899) rotate(-8.96)"/><path class="f" d="M97.86,163.35h23.685v34.159" transform="translate(-76.744 -118.549)"/></g><g transform="translate(151.886 201.808)"><path class="g" d="M261.75,409.1a7.5,7.5,0,1,1,2.2,5.315A7.511,7.511,0,0,1,261.75,409.1Z" transform="translate(-53.821 -66.686)"/><path class="h" d="M264.42,408.027a3.763,3.763,0,1,1,3.763,3.749,3.762,3.762,0,0,1-3.763-3.749Z" transform="translate(-52.742 -65.611)"/><path class="g" d="M204.44,409.1a7.511,7.511,0,1,1,7.511,7.511A7.511,7.511,0,0,1,204.44,409.1Z" transform="translate(-76.973 -66.686)"/><path class="h" d="M207.12,408.027a3.763,3.763,0,1,1,3.749,3.749A3.763,3.763,0,0,1,207.12,408.027Z" transform="translate(-75.89 -65.611)"/><path class="g" d="M185.72,409.1a7.5,7.5,0,1,1,2.2,5.315,7.511,7.511,0,0,1-2.2-5.315Z" transform="translate(-84.535 -66.686)"/><path class="a" d="M188.39,408.027a3.763,3.763,0,1,1,3.763,3.749A3.763,3.763,0,0,1,188.39,408.027Z" transform="translate(-83.457 -65.611)"/><path class="g" d="M0,0H15.879V81.29H.042V0Z" transform="translate(162.51 333.823) rotate(180)"/><rect class="g" width="24.345" height="57.437" transform="translate(166.75 333.823) rotate(180)"/><path class="i" d="M.042,0h20.33V43.72H0V.07Z" transform="translate(191.222 238.901) rotate(180)"/><path class="j" d="M217.93,332.367h79.549a13.942,13.942,0,0,0,13.927-14.292L309.5,240.42a13.942,13.942,0,0,0-13.941-13.59H229.878a13.941,13.941,0,0,0-13.787,11.821l-11.934,77.654a13.942,13.942,0,0,0,13.773,16.061Z" transform="translate(-77.153 -137.284)"/><line class="f" x2="34.889" y2="22.983" transform="translate(166.778 255.327)"/><path class="g" d="M259.938,358.984l5.953,4a3.917,3.917,0,0,1,.548,6.023l-.421.393a3.889,3.889,0,0,1-5.195.225L255.4,365.12a3.819,3.819,0,0,1-.323-5.616h0a3.819,3.819,0,0,1,4.858-.52Z" transform="translate(-56.951 -84.156)"/><path class="j" d="M181.261,354.923H310.638a12.481,12.481,0,0,0,12.481-12.481h0a12.481,12.481,0,0,0-12.481-12.481H181.261a12.481,12.481,0,0,0-12.481,12.481h0a12.481,12.481,0,0,0,12.481,12.481Z" transform="translate(-91.379 -95.622)"/><path class="j" d="M168.87,340.909A12.832,12.832,0,0,1,181.73,330h67.11a12.832,12.832,0,0,1,12.917,10.965,12.5,12.5,0,0,1-12.4,14.04H181.267a12.5,12.5,0,0,1-12.4-14.1Z" transform="translate(-91.384 -95.607)"/><path class="g" d="M184,406.005H308.224a6.809,6.809,0,0,0-6.809-6.8H190.8a6.8,6.8,0,0,0-6.8,6.8Z" transform="translate(-85.23 -67.647)"/><path class="g" d="M199.77,406.005H240.2v-6.8h-33.7a6.809,6.809,0,0,0-6.809,6.8Z" transform="translate(-78.888 -67.647)"/><path class="g" d="M218.221,294.2l-8.957,14.756s-31.323,3.145-49.223,7.16-21.481,23.727-22.379,27.757c-1,4.493-6.543,98.4-4.759,98.854s15.219,1.783,15.219,1.783,22.66-91.258,29.371-92.592,106.056.9,120.826-7.16,18.35-31.323,9.828-47.426S218.221,294.2,218.221,294.2Z" transform="translate(-106.015 -112.063)"/><path class="g" d="M263.85,305.53s-41.628,0-61.775,1.783-32.671,17-31.772,30.438,17.171,101.536,17.171,101.536l15.654-1.4,8.424-94.4s14.04,9.1,68.5-4.886" transform="translate(-90.782 -105.491)"/><path class="k" d="M371.2,203.224c-1.4-.9-5.812,10.74-5.812,10.74a79.512,79.512,0,0,0-8.508,0c-4.914.449-8.943,7.16-8.943,11.639s-20.6,40.266-20.6,40.266-17.9-29.484-24.162-34.454-29.483-9.393-29.483-9.393a92.664,92.664,0,0,0-28.683,0s-23.264,4.465-29.484,9.393-24.176,34.454-24.176,34.454-20.582-35.8-20.582-40.266-4.029-11.232-8.943-11.639a79.449,79.449,0,0,0-8.508,0s-4.479-11.639-5.812-10.74.885,15.219,2.232,18.35,12.538,5.363,12.538,5.363,13.871,52.8,18.336,59.964,9.407,16.118,21.481,10.74S229.4,274.827,229.4,274.827l25.538.393h3.538l30.887-.393s15.219,17.451,27.293,22.815,17.016-3.58,21.481-10.74,18.294-59.964,18.294-59.964,11.232-2.232,12.538-5.363S372.552,204.123,371.2,203.224Z" transform="translate(-100.138 -146.841)"/><path class="l" d="M327.618,247.893c-3.945,7.16-7.245,12.874-7.245,12.874s-17.9-29.483-24.162-34.454-29.483-9.393-29.483-9.393a92.663,92.663,0,0,0-28.683,0s-23.264,4.465-29.484,9.393-24.176,34.454-24.176,34.454-3.566-6.192-7.722-13.759l-12.313,7.5c3.594,12.341,7.343,24.176,9.294,27.293,4.479,7.16,9.407,16.118,21.481,10.74s27.307-22.815,27.307-22.815l25.538.393h3.538l30.887-.393s15.219,17.451,27.293,22.815,17.016-3.58,21.481-10.74c1.966-3.131,5.728-15.009,9.336-27.392Z" transform="translate(-93.168 -141.738)"/><g class="m" transform="translate(71.182 74.066)"><path class="n" d="M279.148,257.382c-.239-2.934-.463-5.714.73-7.5A23.163,23.163,0,0,1,281.7,247.5l-1.769-2.808a24.013,24.013,0,0,0-2.808,3.44c-1.811,2.724-1.544,6.192-1.264,9.561.225,2.934.449,5.7-.744,7.5-1.025,1.53-2.022,1.4-4.759.842a14.349,14.349,0,0,0-7.947,0,7.4,7.4,0,0,0-4.633,5.139c.885.772,1.8,1.544,2.724,2.288.379-2.008,1.221-3.791,2.934-4.352a11.442,11.442,0,0,1,6.276.07c2.724.562,5.827,1.207,8.1-2.218C279.654,264.219,279.373,260.751,279.148,257.382Z" transform="translate(-126.607 -204.136)"/><path class="n" d="M249.792,261.91l1.067,1.193a14.653,14.653,0,0,0,2.738-1.488,7.02,7.02,0,0,1,2.991,0,25.427,25.427,0,0,0,9.982-.66c5.433-1.558,5.616-7.455,5.812-12.636.1-2.892.2-5.9,1.193-7.708a4.338,4.338,0,0,1,5.082-2.134c-.716-1.109-1.4-2.218-2.2-3.327a7.02,7.02,0,0,0-5.728,3.9c-1.4,2.485-1.474,5.883-1.586,9.154-.183,5.433-.519,8.8-3.454,9.631a22.182,22.182,0,0,1-8.8.562c-2.12-.183-3.945-.351-5.321.744a37.446,37.446,0,0,1-6.641,2.808Z" transform="translate(-131.802 -207.99)"/><path class="n" d="M199.254,266.174a14.349,14.349,0,0,0-7.946,0c-2.738.562-3.735.688-4.759-.842-1.193-1.8-.969-4.563-.73-7.5.267-3.37.534-6.837-1.278-9.561a22.364,22.364,0,0,0-3.271-3.973l-1.769,2.808a20.263,20.263,0,0,1,2.345,2.934c1.193,1.783.969,4.563.73,7.5-.267,3.37-.548,6.837,1.278,9.561,2.274,3.426,5.377,2.808,8.1,2.218a11.443,11.443,0,0,1,6.276-.07,4.745,4.745,0,0,1,2.808,3.763c.913-.744,1.8-1.5,2.668-2.274A7.231,7.231,0,0,0,199.254,266.174Z" transform="translate(-158.23 -204.293)"/><path class="n" d="M207.8,258.383a22.253,22.253,0,0,1-8.817-.562c-2.934-.828-3.271-4.212-3.454-9.631-.112-3.271-.225-6.669-1.587-9.154a7.118,7.118,0,0,0-6.571-3.945c-.814,1.221-1.615,2.443-2.4,3.65,1.643-.562,4.563-1.025,6.121,1.853,1,1.811,1.1,4.816,1.193,7.708.183,5.195.393,11.091,5.812,12.636a25.426,25.426,0,0,0,9.982.66,7.02,7.02,0,0,1,2.991,0,11.555,11.555,0,0,0,2.12,1.193l.828-.913,5.812.084a38.23,38.23,0,0,1-6.725-2.892C211.688,258.032,209.9,258.2,207.8,258.383Z" transform="translate(-156.02 -208.015)"/></g><path class="f" d="M327.618,247.893c-3.945,7.16-7.245,12.874-7.245,12.874s-17.9-29.483-24.162-34.454-29.483-9.393-29.483-9.393a92.663,92.663,0,0,0-28.683,0s-23.264,4.465-29.484,9.393-24.176,34.454-24.176,34.454-3.566-6.192-7.722-13.759l-12.313,7.5c3.594,12.341,7.343,24.176,9.294,27.293,4.479,7.16,9.407,16.118,21.481,10.74s27.307-22.815,27.307-22.815l25.538.393h3.538l30.887-.393s15.219,17.451,27.293,22.815,17.016-3.58,21.481-10.74c1.966-3.131,5.728-15.009,9.336-27.392Z" transform="translate(-93.168 -141.738)"/><path class="l" d="M203.43,239.169s-5.812,12.523-4.465,20.582a85.209,85.209,0,0,1,1.334,9.828s-8.424,23.278-9.828,31.772a19.22,19.22,0,0,0,7.61,18.8c4.928,3.58,72.052,4.479,82.343,1.8s9.393-12.538,8.943-21.481-3.973-28.178-3.973-28.178,1.4-27.307-4.465-34.018" transform="translate(-82.73 -132.663)"/><g class="o" transform="translate(107.46 105.607)"><path class="n" d="M259.25,257.065a9.238,9.238,0,0,1-6.276-2.878c-6.107-5.616-10.179-6.543-14.5-3.4l-1.98,1.516c-4.479,3.426-8.719,6.655-15.345,2.569-1.516-.927-2.892-1.923-4.1-2.808-4.451-3.229-6.388-4.437-9.575-1.825-2.373,1.938-4.212,3.089-6.318,2.808-2.682-.323-4.563-2.808-8.3-7.806l-.253-.337a7.02,7.02,0,0,0-4.914-3.187A8.423,8.423,0,0,0,182,244.078a1.618,1.618,0,1,1-2.288-2.289,11.611,11.611,0,0,1,8.2-3.3,10.011,10.011,0,0,1,7.287,4.465l.239.337c2.892,3.847,4.788,6.388,6.107,6.543.744.084,1.923-.548,3.875-2.134,5.237-4.3,9.266-1.4,13.534,1.713,1.221.885,2.485,1.8,3.889,2.668,4.731,2.92,7.343.927,11.681-2.373.66-.519,1.4-1.039,2.078-1.558,7.188-5.237,13.436-1.109,18.6,3.622,3.861,3.538,6.3,1.98,11.428-1.881.983-.73,2.008-1.516,3.117-2.274l.505-.351c6.613-4.591,7.343-4.212,16.286.744l2.4,1.32c3.1,1.713,5.012,2.808,5.9,2.71s1.53-.969,3.229-2.892c.688-.8,1.516-1.727,2.527-2.808,7.245-7.764,9.617-7.245,15.444-4.591l.463.211a1.618,1.618,0,0,1-1.334,2.948l-.463-.211c-4.83-2.2-5.7-2.6-11.737,3.861-.969,1.053-1.769,1.952-2.457,2.738-4.661,5.293-5.616,5.012-13.127.87L285,250.845c-7.918-4.352-7.918-4.352-12.874-.913l-.519.351c-1.067.744-2.05,1.488-3,2.2C265.47,254.818,262.507,257.065,259.25,257.065Zm9.294,11.007c.955-.716,1.938-1.474,3-2.2l.519-.351c4.956-3.454,4.956-3.44,12.874.913l2.387,1.32c7.483,4.142,8.424,4.423,13.127-.87.688-.786,1.488-1.7,2.457-2.738,6.037-6.472,6.908-6.065,11.737-3.861l.463.211a1.618,1.618,0,1,0,1.334-2.948l-.463-.211c-5.8-2.654-8.185-3.173-15.444,4.591-1.011,1.081-1.839,2.008-2.527,2.808-1.7,1.923-2.541,2.808-3.229,2.892s-2.808-1-5.9-2.71l-2.4-1.32c-8.943-4.928-9.673-5.335-16.286-.744l-.505.351c-1.109.758-2.134,1.53-3.117,2.274-5.125,3.861-7.567,5.419-11.428,1.881-5.167-4.731-11.414-8.873-18.6-3.636-.73.534-1.4,1.053-2.078,1.572-4.338,3.3-6.95,5.293-11.681,2.373-1.4-.87-2.668-1.783-3.889-2.668-4.212-3.089-8.3-6.009-13.534-1.713-1.952,1.586-3.089,2.232-3.875,2.134-1.32-.154-3.215-2.7-6.107-6.543l-.239-.337a10.01,10.01,0,0,0-7.287-4.465,11.611,11.611,0,0,0-8.2,3.3,1.618,1.618,0,1,0,2.289,2.289,8.424,8.424,0,0,1,5.686-2.359,6.908,6.908,0,0,1,4.914,3.187l.253.337c3.735,4.984,5.616,7.483,8.3,7.806,2.05.253,3.945-.9,6.318-2.808,3.187-2.6,5.125-1.4,9.575,1.839,1.207.885,2.583,1.881,4.1,2.808,6.627,4.086,10.867.856,15.345-2.569l2.022-1.516c4.324-3.145,8.424-2.19,14.5,3.4a9.21,9.21,0,0,0,6.276,2.808C262.507,272.607,265.47,270.374,268.544,268.072Z" transform="translate(-194.638 -238.181)"/></g><path class="f" d="M203.43,239.169s-5.812,12.523-4.465,20.582a85.209,85.209,0,0,1,1.334,9.828s-8.424,23.278-9.828,31.772a19.22,19.22,0,0,0,7.61,18.8c4.928,3.58,72.052,4.479,82.343,1.8s9.393-12.538,8.943-21.481-3.973-28.178-3.973-28.178,1.4-27.307-4.465-34.018" transform="translate(-82.73 -132.663)"/><path class="j" d="M217.444,216.922l-1.909.379a12.636,12.636,0,0,0-.295,2.527c0,8.522,9.126,15.444,20.372,15.444s20.358-6.922,20.358-15.444v-.73c-5.433-1.4-9.828-2.176-9.828-2.176a92.665,92.665,0,0,0-28.7,0Z" transform="translate(-72.61 -141.739)"/><path class="k" d="M220.18,211.566s-1.4,10.74,0,14.321,9.828,10.291,18.35,7.61a14.04,14.04,0,0,0,9.828-12.973V208l-27.743.9Z" transform="translate(-70.867 -144.891)"/><ellipse class="g" cx="31.772" cy="31.098" rx="31.772" ry="31.098" transform="translate(131.89 0)"/><path class="k" d="M217.3,193.53s-2.682-6.262-4.479-.449,2.246,12.987,4.928,13.422S217.3,193.53,217.3,193.53Z" transform="translate(-73.768 -151.917)"/><path class="k" d="M243.872,193.53s2.682-6.262,4.479-.449-2.246,12.987-4.928,13.422S243.872,193.53,243.872,193.53Z" transform="translate(-61.664 -151.917)"/><path class="k" d="M249.368,178.462a10.923,10.923,0,0,0-8.522-2.064,34.062,34.062,0,0,1-8.283.59c-4.465-.435-8.045-2.232-11.625,1.4s-5.377,20.133-5.377,28.641,6.234,20.526,10.74,23.657,17,2.7,20.133,0,8.059-12.523,8.957-20.582-.9-23.713-2.682-27.743a10.951,10.951,0,0,0-3.341-3.9Z" transform="translate(-72.481 -157.754)"/><ellipse class="e" cx="1.671" cy="2.738" rx="1.671" ry="2.738" transform="translate(155.308 37.472)"/><path class="e" d="M237.011,192.478c0,1.516-.744,2.738-1.671,2.738s-1.671-1.221-1.671-2.738.758-2.738,1.671-2.738S237.011,190.975,237.011,192.478Z" transform="translate(-65.165 -152.268)"/><path class="e" d="M232.581,203.508c0,1.5-.744,2.724-1.671,2.724s-1.671-1.221-1.671-2.724.744-2.738,1.671-2.738S232.581,201.991,232.581,203.508Z" transform="translate(-66.954 -147.812)"/><path class="k" d="M228.277,194.07c-2.808,4.394,2.527,7.216,6.079,4.549,2.429-1.825,0-4.549,0-4.549" transform="translate(-67.662 -150.519)"/><path class="f" d="M221.35,188.15s4.549-4.212,9.112-2.134" transform="translate(-70.142 -154.005)"/><path class="f" d="M233.24,186.279s4.212-2.738,8.2,2.429" transform="translate(-65.338 -153.959)"/><path class="h" d="M140.536,398.57s-26.886,5.265-26.886,8,34.257,10.516,37.907,10.965,4.212-17.185,4.212-17.185Z" transform="translate(-113.65 -67.906)"/><path class="j" d="M153.8,413.038l-1.72-.441-36.637-9.387c-1.123.519-1.8,1.025-1.8,1.4,0,2.808,34.257,10.516,37.907,10.965C152.5,415.776,153.228,414.695,153.8,413.038Z" transform="translate(-113.65 -66.031)"/><path class="h" d="M189.879,401.188s-27.279,11.723-25.454,14.475,37.458,1.4,41.108.913,0-16.735,0-16.735Z" transform="translate(-93.173 -67.392)"/><path class="j" d="M165.283,409.88c-.8.716-1.165,1.32-.9,1.727,1.825,2.738,37.458,1.4,41.108.913.885-.112,1.334-1.151,1.516-2.639Z" transform="translate(-93.189 -63.337)"/></g><g transform="translate(89.622 254.939)"><rect class="h" width="102.954" height="4.156" transform="translate(150.378 100.829) rotate(180)"/><rect class="h" width="102.954" height="4.156" transform="translate(121.344 100.829) rotate(180)"/><path class="h" d="M93.232,283.348h85.853l-9.252-65.538H83.98Z" transform="translate(-63.372 -194.06)"/><path class="g" d="M90.7,283.348h85.853L167.3,217.81H81.45Z" transform="translate(-64.394 -194.06)"/><path class="h" d="M109.26,242.79,100.64,284.8h22.155l8.62-42.007Zm15.023,12.467a.786.786,0,0,1-.758.6l-6.157-.069-6.395-.072a.786.786,0,0,1-.758-.969l1.137-4.7a.786.786,0,0,1,.772-.6l12.552.126a.772.772,0,0,1,.744.955Z" transform="translate(-56.641 -183.968)"/><circle class="j" cx="15.809" cy="15.809" r="15.809" transform="translate(0 30.772) rotate(-76.72)"/><path class="e" d="M84.263,219.038l-4.127,4.7a2.709,2.709,0,0,1-.646.609,2.163,2.163,0,0,1-2.014.323,1.753,1.753,0,0,1-1.144-1.069,2.287,2.287,0,0,1,.634-2.411l4.786-5.071-4.562-5.3a2.486,2.486,0,0,1-.572-1.492,1.641,1.641,0,0,1,.423-1.243,2.685,2.685,0,0,1,1.069-.684,2.038,2.038,0,0,1,1.38,0,3,3,0,0,1,1.342,1.019l3.965,4.723,3.729-4.338a3.206,3.206,0,0,1,.7-.721,2.014,2.014,0,0,1,2.126-.4,1.927,1.927,0,0,1,1.131,1.094,1.6,1.6,0,0,1-.286,1.765l-4.972,5.432,4.972,5.83a2.7,2.7,0,0,1,.385.646,1.765,1.765,0,0,1-.311,1.815,2.113,2.113,0,0,1-1.591.808,2.66,2.66,0,0,1-2.3-1.243Z" transform="translate(-65.44 -197.16)"/></g><g transform="translate(44.229 354.392)"><path class="h" d="M231.266,289.73,226.8,457.8a4.1,4.1,0,0,1-4.1,4h0a4.114,4.114,0,0,1-4.072-4.057L216.44,289.73Z" transform="translate(35.532 -264.458)"/><path class="h" d="M192.618,289.73,188.167,457.8a4.1,4.1,0,0,1-4.114,4h0a4.1,4.1,0,0,1-4.1-4.058l-2.2-168.014Z" transform="translate(19.902 -264.458)"/><path class="h" d="M97,289.73,92.548,457.8a4.1,4.1,0,0,1-4.114,4h0a4.1,4.1,0,0,1-4.1-4.058L82.13,289.73Z" transform="translate(-18.726 -264.458)"/><path class="h" d="M58.258,289.73,53.863,457.8a4.1,4.1,0,0,1-4.029,4h0a4.114,4.114,0,0,1-4.212-4.057L43.46,289.73Z" transform="translate(-34.348 -264.458)"/><rect class="h" width="267.949" height="20.119" transform="translate(272.105 27.041) rotate(180)"/><rect class="h" width="74.846" height="20.119" transform="translate(272.105 27.041) rotate(180)"/><rect class="g" width="267.949" height="10.052" transform="translate(272.105 16.974) rotate(180)"/><rect class="j" width="276.26" height="11.077" transform="translate(276.26 11.077) rotate(180)"/><rect class="j" width="192.289" height="11.077" transform="translate(192.289 11.077) rotate(180)"/></g><g transform="translate(19 551.735)"><line class="f" x2="11.555" transform="translate(628.658)"/><line class="f" x2="609.859"/></g></g><g transform="translate(0 10)"><text class="p" transform="translate(1171 314)"><tspan x="-166.617" y="0">404</tspan></text><text class="q" transform="translate(1171 354)"><tspan x="-159.48" y="0">LOOKS LIKE YOU&apos;RE LOST</tspan></text></g></g></svg>